<?xml version="1.0" standalone="no"?>
<!DOCTYPE svg PUBLIC "-//W3C//DTD SVG 20010904//EN"
 "http://www.w3.org/TR/2001/REC-SVG-20010904/DTD/svg10.dtd">
<svg version="1.0" xmlns="http://www.w3.org/2000/svg"
 width="161.000000pt" height="156.000000pt" viewBox="0 0 161.000000 156.000000"
 preserveAspectRatio="xMidYMid meet">
<metadata>
Created by potrace 1.15, written by Peter Selinger 2001-2017
</metadata>
<g transform="translate(0.000000,156.000000) scale(0.100000,-0.100000)"
fill="#000000" stroke="none">
<path d="M715 1339 c-66 -13 -179 -69 -235 -116 -321 -266 -261 -756 115 -938
296 -143 657 14 767 333 32 95 32 249 0 344 -57 165 -192 301 -358 359 -69 24
-214 33 -289 18z m174 -214 c53 -27 64 -102 21 -145 -74 -74 -199 5 -160 101
22 53 84 73 139 44z m18 -379 c33 -30 37 -39 41 -93 5 -76 -10 -124 -56 -175
-37 -41 -129 -95 -140 -82 -4 3 2 11 12 18 70 41 116 105 116 159 0 23 -3 24
-45 20 -39 -5 -47 -2 -75 25 -64 64 -18 161 78 162 23 0 43 -10 69 -34z"/>
</g>
</svg>
