<?xml version="1.0" standalone="no"?>
<!DOCTYPE svg PUBLIC "-//W3C//DTD SVG 20010904//EN"
 "http://www.w3.org/TR/2001/REC-SVG-20010904/DTD/svg10.dtd">
<svg version="1.0" xmlns="http://www.w3.org/2000/svg"
 width="800.000000pt" height="700.000000pt" viewBox="0 0 800.000000 800.000000"
 preserveAspectRatio="xMidYMid meet">
<metadata>
Created by potrace 1.15, written by Peter Selinger 2001-2017
</metadata>
<g transform="translate(0.000000,800.000000) scale(0.100000,-0.100000)"
fill="#000000" stroke="none">
<path d="M1766 5130 c-7 -19 -106 -428 -106 -441 0 -5 6 -9 14 -9 10 0 25 46
52 158 20 86 40 160 43 164 4 4 24 -67 45 -157 32 -132 43 -165 56 -165 15 0
10 29 -37 223 -62 256 -59 247 -67 227z"/>
<path d="M730 5115 c0 -11 12 -15 50 -15 l50 0 0 -210 c0 -180 2 -210 15 -210
13 0 15 30 15 210 l0 210 50 0 c38 0 50 4 50 15 0 12 -19 15 -115 15 -96 0
-115 -3 -115 -15z"/>
<path d="M1040 4905 c0 -193 2 -225 15 -225 12 0 15 19 15 110 l0 110 85 0 85
0 0 -110 c0 -91 3 -110 15 -110 13 0 15 32 15 225 0 193 -2 225 -15 225 -12 0
-15 -18 -15 -100 l0 -100 -85 0 -85 0 0 100 c0 82 -3 100 -15 100 -13 0 -15
-32 -15 -225z"/>
<path d="M1350 4905 l0 -225 115 0 c96 0 115 3 115 15 0 12 -18 15 -100 15
l-100 0 0 95 0 95 100 0 c82 0 100 3 100 15 0 12 -18 15 -100 15 l-100 0 0 85
0 85 100 0 c82 0 100 3 100 15 0 12 -19 15 -115 15 l-115 0 0 -225z"/>
<path d="M1970 5115 c0 -11 12 -15 50 -15 l50 0 0 -210 c0 -180 2 -210 15
-210 13 0 15 30 15 210 l0 210 50 0 c38 0 50 4 50 15 0 12 -19 15 -115 15 -96
0 -115 -3 -115 -15z"/>
<path d="M2290 4905 c0 -193 2 -225 15 -225 13 0 15 30 15 210 l0 210 69 0
c85 0 101 -16 101 -96 0 -67 -17 -82 -98 -86 l-63 -3 74 -115 c52 -81 80 -116
95 -118 19 -3 13 10 -43 97 -36 55 -65 103 -65 106 0 3 18 5 40 5 31 0 47 7
67 26 23 23 25 31 21 101 -5 102 -18 113 -139 113 l-89 0 0 -225z"/>
<path d="M2600 4905 l0 -225 115 0 c96 0 115 3 115 15 0 12 -18 15 -100 15
l-100 0 0 95 0 95 100 0 c82 0 100 3 100 15 0 12 -18 15 -100 15 l-100 0 0 85
0 85 100 0 c82 0 100 3 100 15 0 12 -19 15 -115 15 l-115 0 0 -225z"/>
<path d="M2900 4900 l0 -230 30 0 30 0 0 105 0 105 65 0 c106 0 165 45 165
125 0 88 -60 125 -200 125 l-90 0 0 -230z m212 150 c23 -29 23 -62 -1 -91 -15
-19 -30 -24 -85 -27 l-66 -4 0 77 0 78 67 -6 c53 -4 71 -10 85 -27z"/>
<path d="M3800 4900 l0 -230 30 0 30 0 0 230 0 230 -30 0 -30 0 0 -230z"/>
<path d="M3960 4900 l0 -230 30 0 30 0 2 186 3 187 125 -187 c119 -178 126
-186 157 -186 l33 0 0 230 0 230 -30 0 -30 0 0 -182 0 -181 -101 149 c-55 82
-110 164 -122 181 -18 27 -28 33 -59 33 l-38 0 0 -230z"/>
<path d="M4400 5105 c0 -24 2 -25 75 -25 l75 0 0 -205 0 -205 30 0 31 0 -3
205 -3 205 73 0 c70 0 72 1 72 25 l0 25 -175 0 -175 0 0 -25z"/>
<path d="M4790 5119 c0 -10 68 -238 122 -407 5 -19 14 -30 18 -25 4 4 36 100
70 213 35 113 65 211 67 218 3 7 -3 12 -15 12 -16 0 -24 -16 -46 -85 -14 -47
-38 -124 -53 -171 l-26 -87 -52 169 c-38 123 -56 170 -68 172 -10 2 -17 -2
-17 -9z"/>
<path d="M5170 5115 c0 -9 9 -15 25 -15 l25 0 0 -190 0 -190 -25 0 c-16 0 -25
-6 -25 -15 0 -12 14 -15 70 -15 56 0 70 3 70 15 0 9 -9 15 -25 15 l-25 0 0
190 0 190 25 0 c16 0 25 6 25 15 0 12 -14 15 -70 15 -56 0 -70 -3 -70 -15z"/>
<path d="M5420 4910 c0 -189 2 -220 15 -220 13 0 15 29 15 205 l0 205 88 0
c110 0 122 -10 122 -93 0 -74 -17 -87 -117 -87 l-73 0 92 -115 c70 -88 97
-115 115 -115 21 0 15 11 -56 99 l-80 99 56 4 c79 7 103 35 103 121 -1 101
-25 117 -174 117 l-106 0 0 -220z"/>
<path d="M5860 5123 c-48 -18 -50 -26 -50 -215 0 -224 -4 -218 135 -218 88 0
98 2 120 25 23 22 25 32 25 115 l0 90 -75 0 c-60 0 -75 -3 -75 -15 0 -12 13
-15 55 -15 l55 0 0 -73 c0 -43 -5 -78 -12 -85 -7 -7 -43 -12 -89 -12 -111 0
-109 -3 -109 190 0 189 1 190 111 190 78 0 99 -16 99 -73 0 -30 4 -37 20 -37
17 0 20 7 20 41 0 31 -6 47 -29 70 -28 27 -34 29 -108 28 -43 0 -85 -3 -93 -6z"/>
<path d="M6190 4930 c0 -248 -4 -240 137 -240 86 0 96 2 118 25 25 24 25 25
25 220 0 188 -1 195 -20 195 -19 0 -20 -7 -20 -193 0 -137 -3 -196 -12 -205
-19 -19 -163 -16 -182 4 -13 13 -16 46 -16 205 0 161 -2 189 -15 189 -13 0
-15 -29 -15 -200z"/>
<path d="M6580 4910 l0 -220 140 0 c118 0 140 2 140 15 0 13 -21 15 -125 15
l-125 0 0 205 c0 176 -2 205 -15 205 -13 0 -15 -31 -15 -220z"/>
<path d="M6960 4910 l0 -220 140 0 c118 0 140 2 140 15 0 13 -21 15 -125 15
l-125 0 0 90 0 90 125 0 c104 0 125 2 125 15 0 13 -21 15 -125 15 l-125 0 0
85 0 85 125 0 c104 0 125 2 125 15 0 13 -22 15 -140 15 l-140 0 0 -220z"/>
<path d="M3252 5088 c-14 -14 -16 -92 -2 -83 5 3 7 19 3 35 -4 22 -1 31 11 36
31 12 69 -7 117 -59 38 -41 45 -55 39 -72 -4 -12 -4 -29 1 -38 8 -14 6 -17
-13 -18 -17 -1 -19 -2 -5 -6 9 -2 15 -9 12 -14 -3 -5 2 -6 11 -2 15 6 15 4 0
-19 -10 -16 -15 -35 -11 -50 12 -46 -65 -107 -81 -64 -3 8 -12 17 -20 20 -17
6 -11 -7 14 -36 22 -27 44 -22 82 17 32 33 58 43 73 29 9 -10 -12 -46 -42 -71
-14 -12 -21 -22 -16 -23 13 0 56 28 72 48 11 14 15 14 31 -1 10 -9 28 -17 39
-17 48 0 116 127 92 172 -8 14 -8 23 0 31 22 22 11 36 -12 14 -20 -19 -21 -24
-10 -38 26 -32 13 -89 -31 -136 -41 -44 -95 -15 -83 43 2 13 -1 32 -8 41 -15
20 -9 43 10 43 8 0 16 4 19 9 3 4 -6 6 -20 3 -24 -4 -25 -3 -18 19 4 13 7 32
6 41 -1 24 81 112 118 128 40 17 64 7 57 -25 -2 -14 0 -28 4 -31 10 -6 12 46
3 70 -3 9 -15 16 -27 16 -30 0 -111 -56 -138 -94 -33 -48 -73 -43 -128 17 -60
65 -122 92 -149 65z"/>
<path d="M4910 4635 c0 -13 136 -15 1165 -15 1029 0 1165 2 1165 15 0 13 -136
15 -1165 15 -1029 0 -1165 -2 -1165 -15z"/>
</g>
</svg>
