<svg id="_Calque_" data-name="&lt;Calque&gt;" xmlns="http://www.w3.org/2000/svg" width="222" height="36.781" viewBox="0 0 222 36.781"><defs><style>.cls-1{fill:#ee4034;stroke:#fd1813;stroke-width:2px;}</style></defs><title>Logo_TJ_rouge</title><path class="cls-1" d="M20.266,10.438a1.787,1.787,0,0,0-1.542,1.9c.5,4.626.59,8.934,1.814,14.15.227,1,2.177.453,1.542,2.177-.454,1.27-1.678,2.993-3.265,1.361a6.869,6.869,0,0,1-1.9-4.536,109.329,109.329,0,0,1-1.089-12.063,2.052,2.052,0,0,0-2.177-2,55.75,55.75,0,0,0-8.526,2C2.533,14.157-.687,9.577,2.034,9.35c5.079-.408,8.889-.68,14.512-1.542,5.216-.771,9.207-1.043,13.243-2.539,1.179-.454,2.993,2.222,1.814,2.721C27.522,9.712,24.257,9.712,20.266,10.438Z"/><path class="cls-1" d="M37.453,33.024c-1.043.045-2.222-.454-2.177-1.633.182-5.215.817-8.662.454-13.424-.045-.68-.136-1.406-.816-1.542-3.719-.725-1.86-3.311.181-4.082.5-.181.59-.725.635-1.27.046-.862,0-1.542,0-2.358,0-.408-.454-.5-.816-.635-3.129-1.134-2.267-2.766-1.451-4.263.817-1.451,1.678-3.583,3.447-2.54a5,5,0,0,0,3.175,1.089,73.179,73.179,0,0,1,9.977,0c2.222.09,1.9,3.129-.091,3.174-3.764.091-6.213-.543-9.705.454-.59.182-1.451,0-1.451.907,0,1.27.045,2.358,0,3.9-.045,1.089.5,1.224,1.27,1.27,4.535.272,7.438.046,11.519,2,1.9.907.907,2.268-1.451,2a80.923,80.923,0,0,0-10.25-.454,1.123,1.123,0,0,0-1.088,1,53.24,53.24,0,0,0-.363,10.249,1.919,1.919,0,0,0,1.723,1.9c4.989.409,8.526-.271,13.152-1,1.179-.182,1.315,1.5.363,1.814C47.567,31.618,43.213,32.707,37.453,33.024Z"/><path class="cls-1" d="M67.521,29.985c-2.132.68-3.129,1.587-5.352,1.9-1.86.272-1.769-.59-1.9-1.724-.726-5.986-1.088-10.023-1.36-17.052-.091-2.858-1.27-4.807-1.9-7.075-.317-1.179.907-3.265,2.54-1.9,3.855,3.22,1.5,13.2,3.084,21.769.136.725.181,1.315,1.542,1.179,3.356-.317,5.125-2.223,8.436-1.633,1.769.317,2.313,2.858,1.27,3.265C71.512,29.622,69.789,29.259,67.521,29.985Z"/><path class="cls-1" d="M85.525,20.733c-3.447-.453-6.077.454-8.843,0-1.179-.181-1.588-2.9-.136-2.993a31.554,31.554,0,0,1,9.524.544C87.2,18.556,86.614,20.869,85.525,20.733Z"/><path class="cls-1" d="M98.5,26.765c-1.043,4.762-4.535,8.435-8.617,8.98-2.177.272-4.49-1-4.444-3.447.045-1.859,1.451-4.852,2.54-3.991a2.747,2.747,0,0,1,1.179,2.9c-.408.952-.817,1.542.544,1.542a5.347,5.347,0,0,0,5.17-3.719c3.22-8.027.907-17.914-.272-23.764C93.87,1.776,98.9,3,98.949,5.722,99.085,13.931,99.856,20.6,98.5,26.765Z"/><path class="cls-1" d="M108.7,33.024c-1.044.045-2.223-.454-2.178-1.633.182-5.215.817-8.662.454-13.424-.045-.68-.137-1.406-.817-1.542-3.719-.725-1.859-3.311.182-4.082.5-.181.59-.725.635-1.27.045-.862,0-1.542,0-2.358,0-.408-.454-.5-.817-.635-3.129-1.134-2.267-2.766-1.451-4.263.816-1.451,1.678-3.583,3.447-2.54a4.993,4.993,0,0,0,3.175,1.089,73.174,73.174,0,0,1,9.977,0c2.223.09,1.9,3.129-.09,3.174-3.765.091-6.213-.543-9.706.454-.59.182-1.451,0-1.451.907,0,1.27.045,2.358,0,3.9-.045,1.089.5,1.224,1.271,1.27,4.535.272,7.438.046,11.519,2,1.905.907.907,2.268-1.451,2a80.918,80.918,0,0,0-10.249-.454,1.123,1.123,0,0,0-1.089,1,53.24,53.24,0,0,0-.363,10.249,1.919,1.919,0,0,0,1.724,1.9c4.989.409,8.526-.271,13.152-1,1.179-.182,1.315,1.5.363,1.814C118.813,31.618,114.459,32.707,108.7,33.024Z"/><path class="cls-1" d="M141.216,29.759c-1.587,2.449-3.265,1.769-6.349-.182-2.858-1.814-5.669-6.485-5.9-11.52-.227-5.215.272-7.846.544-12.88.09-1.769,2.721-1.043,3.265.091.771,1.542,1.36,2.948.363,4.263-.725.952-2,7.166-.363,11.338,1.27,3.22,4.036,7.256,5.624,6.893,1.95-.453,3.129-3.447,4.353-6.077,2.268-4.762,2.585-8.254,1.543-13.424-.409-2,2.4-1.588,2.9-.544C149.335,12.026,146.07,22.321,141.216,29.759Z"/><path class="cls-1" d="M167.294,32.842c-.409-2.358-.318-4.535-1.724-5.986-3.447-3.538-4.853-5.851-8.254-9.433-.725-.771-1.632-.543-1.632.544,0,3.673.271,5.76.363,9.434.045,1.95-3.628,1.315-3.538.272.5-5.805.317-17.778-1.451-18.685-1.361-.68,1.632-4.944,2.721-2.9,2.313,4.4,8.662,11.429,10.885,15.238.68,1.134,1.451,1.5,1.451,0,0-5.079.453-8.208-1.361-12.97-.5-1.316.771-3.175,2.993-1.542,2.993,2.177,1,13.288,2.086,21.769.227,1.724,1.542,3.129.907,4.353C170.105,34.112,167.475,33.84,167.294,32.842Z"/><path class="cls-1" d="M179.583,33.024c-1.044.045-2.223-.454-2.177-1.633.181-5.215.816-8.662.453-13.424-.045-.68-.136-1.406-.817-1.542-3.718-.725-1.859-3.311.182-4.082.5-.181.59-.725.635-1.27.045-.862,0-1.542,0-2.358,0-.408-.453-.5-.817-.635-3.129-1.134-2.267-2.766-1.45-4.263.816-1.451,1.677-3.583,3.446-2.54a5,5,0,0,0,3.175,1.089,73.172,73.172,0,0,1,9.977,0c2.223.09,1.905,3.129-.09,3.174-3.764.091-6.213-.543-9.706.454-.59.182-1.451,0-1.451.907,0,1.27.045,2.358,0,3.9-.046,1.089.5,1.224,1.27,1.27,4.535.272,7.438.046,11.519,2,1.905.907.908,2.268-1.451,2a80.937,80.937,0,0,0-10.25-.454,1.122,1.122,0,0,0-1.088,1,53.167,53.167,0,0,0-.364,10.249,1.919,1.919,0,0,0,1.724,1.9c4.989.409,8.527-.271,13.152-1,1.179-.182,1.316,1.5.364,1.814C189.7,31.618,185.343,32.707,179.583,33.024Z"/><path class="cls-1" d="M217.27,30.348c-3.765,1.451-8.889-1.044-13.515-3.992-2.494-1.587-.09-2.4,1.451-1.632,3.855,1.95,6.4,3.265,10.7,2.811,1.814-.181,2.131-2.4,1.271-3.538-3.13-4.036-13.016-4.126-16.6-6.712-4.263-3.084-2.268-5.4,0-6.531,5.986-3.038,17.46-7.528,18.776-3.991.453,1.178.635,3.809-2,2.721a10.271,10.271,0,0,0-5.442,0,73.275,73.275,0,0,0-8.345,2.9c-1.859.771-1.724,1.134-.363,2.358,1.677,1.5,13.015,3.039,16.6,7.892C222.485,26.266,220.218,29.214,217.27,30.348Z"/></svg>